<svg xmlns="http://www.w3.org/2000/svg" height="500" viewBox="0 0 120 43" fill="none">
    <path fill-rule="evenodd" clip-rule="evenodd" d="M20.9015 18.2505C20.9015 17.841 21.2776 17.4671 21.6896 17.4671H23.0866C24.1612 17.4671 24.6269 17.0041 24.8597 16.5768C25.003 16.2919 25.5582 14.9565 25.9343 14.1197H20.8836V4.45135C20.8836 3.98841 21.206 3.66791 21.6716 3.66791H24.3761C25.4508 3.66791 25.9702 3.15155 26.1493 2.74203L27.2776 0.320497H18.5373C17.9821 0.320497 17.5522 0.730021 17.5164 1.24638V32.8331H25.003C26.0776 32.8331 26.597 32.3702 26.8299 31.9429C26.9731 31.658 27.5284 30.3582 27.9045 29.5213H20.8836V18.2505H20.9015ZM37.0388 1.29979V32.8331H39.3851C39.9045 32.8331 40.3702 32.4236 40.3702 31.8538V18.7135C40.3702 18.2505 40.7463 17.93 41.2119 17.93H43.4507C44.5254 17.93 44.991 17.4137 45.2239 17.0041L46.3522 14.5826H40.3702V4.45135C40.3702 4.04182 40.7463 3.66791 41.1582 3.66791H44.9015C45.9761 3.66791 46.4418 3.15155 46.6746 2.74203C46.8179 2.45714 47.4269 1.15735 47.7493 0.320497H38.0239C37.4507 0.320497 37.0388 0.783437 37.0388 1.29979ZM58.5851 0.320497H56.5791V32.1387C56.6328 32.3702 56.7582 32.8331 57.5642 32.8331H59.9463V1.62029C59.9463 1.06832 59.5701 0.320497 58.5851 0.320497ZM76.7821 0H74.7224C72.3761 0 70.5134 1.85176 70.5134 4.13085V29.0228C70.5134 31.3019 72.3761 33.1536 74.7224 33.1536H76.7821C79.0209 33.0646 80.8119 31.2484 80.8119 29.0228V21.1706C79.9702 21.5445 78.6627 22.0965 78.3761 22.2389C77.9642 22.4704 77.4806 22.9867 77.4806 24.0551V28.4174C77.4806 29.4323 76.6925 30.2335 75.6537 30.2335C74.6686 30.2335 73.8806 29.4501 73.8806 28.4174V4.68282C73.8806 3.70352 74.6686 2.92008 75.6537 2.92008C76.6746 2.92008 77.4806 3.70352 77.4806 4.68282V11.983L79.9164 10.8613C80.3284 10.6832 80.8119 10.1669 80.8119 9.09855V4.13085C80.8119 1.90518 79.0388 0.0534162 76.7821 0ZM94.5672 0.320497H92.7403L87.7791 32.8331H91.4687L94.406 10.4518L97.3433 32.8331H101.033L96.3403 2.08323C96.197 1.21077 95.9642 0.320497 94.5672 0.320497ZM110.884 29.5391C110.418 29.5391 110.131 29.2186 110.275 28.6489L119.946 0.320497H107.23C107.606 1.15735 108.161 2.45714 108.304 2.74203C108.537 3.15155 109.057 3.66791 110.131 3.66791H113.91C114.466 3.66791 114.663 4.04182 114.573 4.45135L104.955 32.8331H117.152C118.227 32.8331 118.693 32.3702 118.925 31.9072L120 29.5391H110.884Z" fill="rgb(101, 102, 103)"/>
    <path d="M11.7672 1.40662C11.3552 1.58468 10.8358 2.10103 10.8358 3.16936V32.8331H14.203V0.30269L11.7672 1.40662Z" fill="#56ccf2"/>
    <path d="M6.37612 6.40993C5.96418 6.58799 5.44478 7.10434 5.44478 8.17267V32.8509H8.81195V5.2882L6.37612 6.40993Z" fill="rgb(74, 143, 203"/>
    <path d="M0.931343 13.995C0.519403 14.1731 0 14.6894 0 15.7578V32.8331H3.36716V12.8733L0.931343 13.995Z" fill="rgb(81, 130, 191)"/>
    <path d="M72.4836 36.0559H73.2717L74.5075 38.9582C74.6328 39.2609 74.7761 39.6704 74.7761 39.6704H74.794C74.794 39.6704 74.9373 39.2431 75.0627 38.9582L76.2985 36.0559H77.0866L77.5164 41.3975H76.7642L76.4955 38.0323C76.4776 37.7118 76.4955 37.2489 76.4955 37.2489H76.4776C76.4776 37.2489 76.3164 37.7474 76.1911 38.0323L75.1164 40.436H74.4537L73.3791 38.0323C73.2537 37.7474 73.0925 37.2311 73.0925 37.2311H73.0746C73.0746 37.2311 73.0746 37.7118 73.0567 38.0323L72.806 41.3975H72.0537L72.4836 36.0559Z" fill="rgb(101, 102, 103)"/>
    <path d="M82.1552 39.0116H82.3164V38.9404C82.3164 38.3172 81.9582 38.1035 81.4746 38.1035C80.8836 38.1035 80.4 38.4774 80.4 38.4774L80.0955 37.9433C80.0955 37.9433 80.6508 37.4803 81.5284 37.4803C82.4955 37.4803 83.0508 38.0145 83.0508 38.976V41.3975H82.3881V41.0414C82.3881 40.8633 82.406 40.7387 82.406 40.7387H82.3881C82.3881 40.7387 82.0836 41.5043 81.1522 41.5043C80.4896 41.5043 79.8448 41.0948 79.8448 40.3292C79.8269 39.065 81.5105 39.0116 82.1552 39.0116ZM81.3134 40.899C81.9403 40.899 82.3343 40.2402 82.3343 39.6704V39.5457H82.1373C81.5821 39.5457 80.5791 39.5814 80.5791 40.2758C80.5791 40.5963 80.8299 40.899 81.3134 40.899Z" fill="rgb(101, 102, 103)"/>
    <path d="M85.6657 37.5694H86.3821V38.2281C86.3821 38.3884 86.3642 38.513 86.3642 38.513H86.3821C86.5612 37.9611 87.009 37.5159 87.6 37.5159C87.7075 37.5159 87.797 37.5337 87.797 37.5337V38.2638C87.797 38.2638 87.6896 38.246 87.5821 38.246C87.1164 38.246 86.6687 38.5843 86.5075 39.154C86.4358 39.3677 86.4179 39.617 86.4179 39.8484V41.4153H85.6836V37.5694H85.6657Z" fill="rgb(101, 102, 103)"/>
    <path d="M90 36.0559H90.7343V38.976H91.2716L92.3284 37.5694H93.1702L91.8985 39.2609V39.2787L93.3313 41.4153H92.4716L91.3075 39.617H90.7522V41.4153H90.0179V36.0559H90Z" fill="rgb(101, 102, 103)"/>
    <path d="M97.0925 37.4803C98.1851 37.4803 98.7582 38.2816 98.7582 39.2787C98.7582 39.3855 98.7403 39.5992 98.7403 39.5992H95.9284C95.9642 40.436 96.5731 40.8633 97.2537 40.8633C97.9164 40.8633 98.4 40.4182 98.4 40.4182L98.7045 40.9524C98.7045 40.9524 98.1313 41.5043 97.2179 41.5043C96 41.5043 95.1761 40.6319 95.1761 39.4923C95.1761 38.2638 96 37.4803 97.0925 37.4803ZM98.006 39.0294C97.9881 38.3706 97.5761 38.0501 97.0746 38.0501C96.5194 38.0501 96.0537 38.4062 95.9463 39.0294H98.006Z" fill="rgb(101, 102, 103)"/>
    <path d="M101.319 38.2104H100.818V37.6228H101.337V36.5188H102.054V37.6228H102.985V38.2104H102.054V39.9197C102.054 40.6853 102.591 40.7921 102.878 40.7921C102.985 40.7921 103.057 40.7743 103.057 40.7743V41.4331C103.057 41.4331 102.949 41.4509 102.806 41.4509C102.304 41.4509 101.319 41.2907 101.319 40.0265V38.2104Z" fill="rgb(101, 102, 103)"/>
    <path d="M105.367 36.0559H106.119V36.8037H105.367V36.0559ZM105.367 37.5694H106.101V41.3975H105.367V37.5694Z" fill="rgb(101, 102, 103)"/>
    <path d="M108.752 37.5694H109.469V38.0857C109.469 38.246 109.451 38.3706 109.451 38.3706H109.469C109.63 38.0323 110.078 37.4981 110.919 37.4981C111.833 37.4981 112.245 37.9967 112.245 38.976V41.4331H111.51V39.1362C111.51 38.6021 111.403 38.1747 110.776 38.1747C110.185 38.1747 109.719 38.5665 109.558 39.1184C109.504 39.2787 109.504 39.4389 109.504 39.6348V41.4331H108.77V37.5694H108.752Z" fill="rgb(101, 102, 103)"/>
    <path d="M116.239 42.359C116.901 42.359 117.457 42.0563 117.457 41.2907V41.0058C117.457 40.8812 117.457 40.7565 117.457 40.7565H117.439C117.206 41.1304 116.848 41.3619 116.293 41.3619C115.218 41.3619 114.573 40.5072 114.573 39.4033C114.573 38.2994 115.182 37.4803 116.257 37.4803C117.188 37.4803 117.475 38.0501 117.475 38.0501H117.493C117.493 38.0501 117.493 37.9967 117.493 37.9255V37.5694H118.209V41.2373C118.209 42.5014 117.242 42.9822 116.257 42.9822C115.791 42.9822 115.307 42.8575 114.931 42.6617L115.182 42.0919C115.182 42.0919 115.648 42.359 116.239 42.359ZM117.475 39.4033C117.475 38.4062 116.991 38.1213 116.382 38.1213C115.719 38.1213 115.325 38.6021 115.325 39.3855C115.325 40.1867 115.755 40.7209 116.454 40.7209C116.991 40.7209 117.475 40.4004 117.475 39.4033Z" fill="rgb(101, 102, 103)"/>
</svg>